<svg width="557" height="90" viewBox="0 0 557 90" fill="none" xmlns="http://www.w3.org/2000/svg">
<path d="M523.778 82.6378C513.789 82.6378 505.843 79.9135 499.94 74.4649C494.038 68.9405 491.086 61.0703 491.086 50.8541V31.7838C491.086 21.5676 494.038 13.7351 499.94 8.28649C505.843 2.76216 513.789 2.23517e-06 523.778 2.23517e-06C533.768 2.23517e-06 541.713 2.76216 547.616 8.28649C553.519 13.7351 556.47 21.5676 556.47 31.7838V50.8541C556.47 61.0703 553.519 68.9405 547.616 74.4649C541.713 79.9135 533.768 82.6378 523.778 82.6378ZM523.778 69.2433C529.378 69.2433 533.73 67.6162 536.832 64.3622C539.935 61.1081 541.486 56.7568 541.486 51.3081V31.3297C541.486 25.8811 539.935 21.5297 536.832 18.2757C533.73 15.0216 529.378 13.3946 523.778 13.3946C518.254 13.3946 513.903 15.0216 510.724 18.2757C507.622 21.5297 506.07 25.8811 506.07 31.3297V51.3081C506.07 56.7568 507.622 61.1081 510.724 64.3622C513.903 67.6162 518.254 69.2433 523.778 69.2433Z" fill="white"/>
<path d="M392.802 81.0487V1.58918H420.613L434.348 70.8324H436.392L450.127 1.58918H477.938V81.0487H463.408V12.6H461.365L447.743 81.0487H422.997L409.375 12.6H407.332V81.0487H392.802Z" fill="white"/>
<path d="M344.458 81.0487V15.2108H321.301V1.58918H382.599V15.2108H359.442V81.0487H344.458Z" fill="white"/>
<path d="M263.215 81.0487V1.58918H314.296V15.2108H278.199V34.1676H311.118V47.7892H278.199V67.427H314.977V81.0487H263.215Z" fill="white"/>
<path d="M188.722 81.0487V1.58918H203.706V34.3946H233.219V1.58918H248.203V81.0487H233.219V48.0162H203.706V81.0487H188.722Z" fill="white"/>
<path d="M117 81.0487V1.58918H151.508C156.503 1.58918 160.854 2.45945 164.562 4.2C168.27 5.94054 171.146 8.4 173.189 11.5784C175.232 14.7568 176.254 18.5027 176.254 22.8162V24.1784C176.254 28.9459 175.119 32.8054 172.849 35.7568C170.578 38.7081 167.778 40.8649 164.449 42.227V44.2703C167.476 44.4216 169.822 45.4811 171.486 47.4487C173.151 49.3405 173.984 51.8757 173.984 55.0541V81.0487H159V57.2108C159 55.3946 158.508 53.9189 157.524 52.7838C156.616 51.6486 155.065 51.0811 152.87 51.0811H131.984V81.0487H117ZM131.984 37.4595H149.919C153.476 37.4595 156.238 36.5135 158.205 34.6216C160.249 32.6541 161.27 30.0811 161.27 26.9027V25.7676C161.27 22.5892 160.286 20.0541 158.319 18.1622C156.351 16.1946 153.551 15.2108 149.919 15.2108H131.984V37.4595Z" fill="white"/>
<path d="M0 45.9991C0 70.242 19.57 89.8229 43.7996 89.8229C67.8429 89.8229 87.4129 70.242 87.5993 46.1855C87.4129 52.1531 82.567 56.8152 76.6028 56.8152C70.6386 56.8152 65.6063 51.9666 65.6063 45.8126C65.6063 19.7047 65.6063 58.3696 65.6063 32.8213C65.6063 14.7322 50.8821 0 32.8031 0C14.7241 0 0 14.7322 0 32.8213V45.9991ZM16.3861 26.8456C20.2283 26.8456 23.3826 29.978 23.3589 33.8223V43.5991C23.3589 47.4433 20.2046 50.5757 16.3861 50.5757C12.5677 50.5757 9.41327 47.4671 9.41327 43.5991V33.8223C9.41327 29.978 12.544 26.8456 16.3861 26.8456ZM36.8267 26.8456C40.6688 26.8456 43.8232 29.978 43.7995 33.8223V43.5991C43.7995 47.4433 40.6451 50.5757 36.8267 50.5757C33.0083 50.5757 29.8539 47.4671 29.8539 43.5991V33.8223C29.8539 29.978 32.9846 26.8456 36.8267 26.8456Z" fill="#00C8BE"/>
</svg>
